# xmcd CD database file
#
# Track frame offsets:
#	150
#	17480
#	39738
#	57098
#
# Disc length: 1056 seconds
#
# Revision: 0
# Processed by: cddbd v1.5.1PL0 Copyright (c) Steve Scherf et al.
# Submitted via: CDex 1.51
#
DISCID=28041e04
DTITLE=横山智佐 - Sleepless Angels 〜眠れぬ夜の天使たち〜
DYEAR=1995
DGENRE=Anime
TTITLE0=Sleepless Angels 〜眠れぬ夜の天使たち〜
TTITLE1=憧れに近づくために
TTITLE2=Sleepless Angels 〜眠れぬ夜の天使たち〜（オリジナル・カラオケ)
TTITLE3=憧れに近づくために（オリジナル・カラオケ）
EXTD=YEAR: 1995
EXTT0=
EXTT1=
EXTT2=
EXTT3=
PLAYORDER=
